<?xml version="1.0" encoding="UTF-8"?>
<svg width="200px" height="200px" viewBox="0 0 200 200" version="1.1" xmlns="http://www.w3.org/2000/svg" xmlns:xlink="http://www.w3.org/1999/xlink">
    <!-- Generator: Sketch 54.1 (76490) - https://sketchapp.com -->
    <title>swarthmore</title>
    <desc>Created with Sketch.</desc>
    <g id="swarthmore" stroke="none" stroke-width="1" fill="none" fill-rule="evenodd">
        <g id="swarthmore_BGL" transform="translate(0.000000, 0.000000)">
            <g id="swarthmore" transform="translate(12.000000, 0.000000)">
                <g id="g10" transform="translate(88.483527, 99.889819) scale(-1, 1) rotate(-180.000000) translate(-88.483527, -99.889819) translate(0.000000, 0.013185)" fill-rule="nonzero">
                    <g id="g12">
                        <path d="M52.2116056,158.836789 C51.8617564,156.223921 51.9698077,124.405571 52.3063482,122.854585 C52.7317016,122.484593 53.2420467,122.65997 53.7189222,122.65997 C81.9957009,122.658521 110.27248,122.655095 138.549522,122.685532 C139.883034,122.686982 140.946417,122.367192 142.03352,121.551577 C151.254781,114.630969 160.519527,107.770182 169.772413,100.892003 C170.505054,100.347293 171.265367,99.8342062 171.949253,99.0104217 C171.949253,74.932247 171.949253,50.7539323 171.949253,26.5727187 C171.434033,25.6582809 170.498466,25.2498145 169.702575,24.6950907 C160.594636,18.3401434 151.464295,12.0154753 142.370851,5.63812823 C141.274525,4.87000049 140.186105,4.55639049 138.856546,4.5577213 C113.323086,4.58670924 87.7894942,4.60378578 62.2561659,4.53790409 C59.887601,4.53265991 55.3701315,5.76202532 54.6539618,6.2666922 C54.0387279,5.21386335 54.1827524,5.78575591 53.5917642,4.71847261 C37.5283475,4.71847261 21.3874501,4.71847261 5.06366911,4.71847261 C5.06366911,21.6750743 5.06366911,38.5697735 5.06366911,55.6344475 C21.3133953,55.6344475 37.4400616,55.6344475 53.8191991,55.6344475 C53.8191991,51.805404 53.8191991,48.046195 53.8191991,44.132823 C77.2297133,44.132823 100.388415,44.132823 123.679678,44.132823 C123.679678,57.8968245 123.679678,71.5724129 123.679678,85.2118981 C122.943083,85.8198543 122.135202,85.5692403 121.390306,85.5695039 C91.9880803,85.581099 62.5857226,85.5941436 33.1836284,85.5405159 C30.9804347,85.5364313 29.1425074,86.0107794 27.311432,87.2854582 C20.3332904,92.1431784 13.2621192,96.8671587 6.23009677,101.647534 C5.82695976,101.921602 5.46294526,102.25325 5.00056448,102.621792 C5.00056448,127.339678 5.00056448,152.077328 5.00056448,177.03331 C7.46605944,178.825292 10.0063866,180.689744 12.566835,182.527843 C17.6505858,186.176371 22.7606248,189.788004 27.822963,193.46552 C28.8420719,194.20603 29.8545922,194.547297 31.1227463,194.54598 C58.7663704,194.518309 86.4101263,194.519627 114.05375,194.54598 C115.301875,194.54598 116.385156,194.271912 117.446695,193.63813 C118.692975,192.893667 120.001187,192.253297 121.274744,191.57208 C121.992363,192.482565 121.277907,193.528767 122.019244,194.406311 C138.141035,194.406311 170.574892,194.406311 170.574892,194.406311 L170.746193,144.419241 C170.746193,144.419241 138.228003,144.419241 121.688633,144.419241 C121.688633,149.220698 121.688633,153.957591 121.688633,158.836789 C98.3949992,158.836789 75.3655637,158.836789 52.2116056,158.836789 L52.2116056,158.836789 Z M134.647813,38.6725489 C131.287943,32.3479072 44.1692898,31.183119 44.5217744,36.3008083 C44.5217744,39.9862297 43.9288096,41.2788284 43.9288096,44.9971907 C41.2034116,45.517656 17.2886137,47.2793322 15.8632581,46.7746785 C15.8632581,33.1160876 14.2820186,30.1790821 14.2820186,16.5376205 C17.2697706,16.0421902 38.745243,11.8705883 40.1736294,12.3871007 C40.397243,14.812838 48.4611691,19.5220608 48.8699195,22.2680094 C49.7112707,21.6895682 60.5265535,15.7272758 63.1004161,13.7705897 C63.9766863,13.1038671 68.1002953,12.3857567 69.2273238,12.3871007 C94.5474482,12.4160755 109.723262,13.5992974 135.043123,13.5729447 C136.167121,13.5716271 141.650069,20.4470397 142.554011,21.0821391 C148.649689,25.3684015 147.703581,27.3013702 153.819025,31.557327 C156.521626,33.4389079 159.058198,36.4035837 161.725222,38.2772588 C161.725222,60.9893108 154.94434,93.7617596 154.609644,94.0101335 C146.093352,100.344789 147.465077,101.050514 138.996222,107.449207 C137.603414,108.501074 134.149723,111.205912 132.473609,111.204331 C103.285641,111.176529 79.0462939,112.788917 49.8581942,112.78536 C49.4445683,112.78536 42.6713289,115.706817 42.150047,116.145194 C38.0027193,130.986097 43.3358448,153.300092 47.2888118,168.488456 C73.6840473,168.488456 100.405018,166.937601 126.939798,166.937601 C126.939798,162.037321 134.845468,161.267823 134.845468,156.462413 C148.237249,156.462413 147.499337,155.078898 160.736947,155.078898 C156.849734,166.038975 157.801113,169.450328 158.760398,181.364372 C145.481939,181.364372 129.131001,179.843823 128.718561,178.004406 C127.858235,177.837067 113.081552,187.3069 111.325849,187.293724 C102.182858,187.22916 93.7798882,189.652288 84.6366344,189.657559 C67.3348437,189.666782 49.7671411,180.936141 32.4653504,180.969082 C31.2182795,180.971717 21.1388001,163.506483 19.0254736,161.996475 C19.0254736,138.770545 33.2149897,112.015862 18.6301637,106.658626 C24.6757693,102.54919 23.0876778,103.691447 29.1053482,99.5419551 C30.2630791,98.7437326 131.198735,94.6628893 131.880644,94.0101335 C131.880644,77.1799984 134.647813,55.6278593 134.647813,38.6725489 L134.647813,38.6725489 Z" id="path14" fill="#FFFFFF"></path>
                        <polyline id="path16" fill="#A11833" points="128.505093 39.3458598 128.508124 90.3750457 33.423318 90.3921749 9.67747558 105.452465 9.67747558 174.492913 32.7313939 189.710264 84.6366344 189.657559 112.066528 189.693135 126.456466 183.668914 126.463845 189.494172 166.205401 189.507348 166.205401 149.25891 126.467535 149.25891 126.467535 163.698857 47.2855175 163.698857 47.2855175 117.968667 136.218511 117.996864 167.181816 96.7168167 167.181816 28.8443192 137.884084 9.45139967 61.9241057 9.4460896 49.0377944 17.8144076 49.0092003 9.44877758 9.72724509 9.44877758 9.72724509 50.8105905 49.0247492 50.8119082 49.0247492 39.6396921 128.505093 39.3458598 128.505093 39.3458598"></polyline>
                        <path d="M52.2116056,158.836789 L121.688633,158.836789 L121.688633,144.419241 L170.569622,144.419241 L170.574892,194.406311 L122.019244,194.406311 L121.949933,191.57208 L114.05375,194.54598 L31.1227463,194.54598 L5.00056448,177.03331 L5.00056448,102.621792 L33.1836284,85.5405159 L123.644495,85.5664733 L123.679678,44.132823 L53.8191991,44.132823 L53.8191991,55.6344475 L5.06366911,55.6344475 L5.06366911,4.71847261 L53.5098032,4.71847261 L53.509935,7.96643967 L62.2561659,4.53790409 L138.856546,4.5577213 L171.949253,26.5727187 L171.949253,99.0104217 L169.772413,100.892003 L138.549522,122.685532 L52.3063482,122.664055 L52.2116056,158.836789 Z M175.952424,139.354257 L117.514029,139.354257 L117.514029,153.6743 L57.169055,153.6743 L57.1188506,127.763824 L140.236177,127.749725 L176.931475,101.650169 L176.931475,23.5856431 L141.410248,0 L0.317071461,0.0197645054 L0.317071461,60.5505388 L57.9024865,60.5505388 L57.9024865,49.1899011 L118.554485,49.1899011 L118.554485,80.5381196 L32.525701,80.5070234 L0,99.8812458 L0,179.696248 L29.7070099,199.667622 L175.881269,199.667622 L175.952424,139.354257 L175.952424,139.354257 Z" id="path18" fill="#A11833"></path>
                    </g>
                </g>
            </g>
        </g>
    </g>
</svg>